<svg xmlns="http://www.w3.org/2000/svg" width="1200" height="506.25" viewBox="0 0 960.000000 405.000000"><g transform="matrix(.1 0 0-.1 0 405)"><path d="m6215 3544c-238-27-272-36-443-118-86-41-197-87-247-102-119-35-212-79-331-154-219-138-285-175-423-237-197-87-252-105-353-111-88-5-88-5-110 24-37 49-87 93-212 187-67 50-141 112-164 136l-44 45-19-25c-10-13-19-27-19-31 0-19-20-5-40 28-26 40-58 64-92 67-12 1-39 12-59 24-20 13-65 30-100 38-96 23-211 52-234 59-16 5-27-4-53-39-34-47-92-161-92-182 0-6-24-22-52-36-29-13-94-51-144-84-50-33-138-79-195-103-150-63-210-97-439-250-276-185-343-221-536-291-187-67-267-89-339-89-41 0-213 35-399 82-27 7-62 32-115 82-79 74-181 140-311 199-69 32-78 33-102 21-47-25-71-78-73-163-1-54-8-89-23-121-27-57-27-80 1-161 32-89 60-135 169-268 92-113 94-115 216-183 192-106 221-134 252-253 20-78 43-116 104-173 73-69 143-102 219-102 33 0 74 7 91 15 18 9 66 54 107 101 41 47 100 114 131 151 32 36 67 85 78 108 18 37 41 57 159 134 261 172 387 223 584 241 129 11 230 37 333 85 120 55 182 103 335 257 81 82 152 148 159 148 23 0 116-107 152-176 20-38 60-145 88-239 28-93 56-177 61-186 16-31 11-39-17-29-14 6-27 10-30 10-2 0-4-30-4-66v-66l42 36c23 20 45 36 50 36 5 0 13 12 18 26 19 49-22 230-97 429-37 97-41 103-132 193-52 50-99 92-106 92-24 0-193-121-280-201-194-176-355-254-577-278-173-19-368-98-552-223-85-57-90-60-103-42-14 18-17 16-60-31-25-27-76-92-113-145-114-158-174-224-248-274-79-52-88-52-173-10-64 32-103 83-139 181-16 46-37 97-45 112-28 56-142 147-251 202-100 51-109 58-155 124-27 39-65 81-84 94-111 75-166 229-115 324 17 30 20 56 20 147 0 60 3 110 7 110 4 0 72-37 152-82 109-62 167-103 230-160 65-61 95-81 135-93 89-26 529-125 533-121 3 2 0 13-6 24-6 12-11 25-11 29 0 5 37 20 83 33 288 82 486 176 669 318 153 119 322 220 494 295 55 24 154 78 220 119 176 110 161 105 179 61 9-20 20-82 26-136 5-55 15-113 22-128 7-16 86-104 177-196 197-200 224-243 275-447 42-169 61-208 135-281 33-33 60-63 60-67 0-7-108-42-210-69l-45-12 53-23 53-24 98-202c110-226 186-339 272-404 70-54 255-163 394-232 61-30 116-64 124-76 7-12 44-51 82-87 112-108 198-141 409-154 52-4 129-10 170-16 200-24 299-29 376-18 98 13 134 32 209 109 72 73 102 84 360 130 187 34 333 79 464 142l86 41 150 2c113 0 161 5 195 17 71 27 321 163 362 198l38 31 76-10c94-14 391-14 501-1 46 5 129 25 186 44 103 34 538 249 627 309 56 38 200 176 200 192 0 16-76 193-97 224-36 56-204 261-254 311-76 76-210 160-341 214-271 112-308 129-319 142-9 11-6 28 13 76 58 148 60 213 11 314-68 140-266 287-431 323-136 29-301-8-385-87l-28-26-211 104c-116 58-251 128-299 157-144 84-184 96-334 99-71 1-188-4-260-12m338-53c87-23 117-37 282-135 105-62 408-196 443-196 6 0 12-4 12-10 0-15-139-158-161-165-11-4-41 0-67 9-72 23-136 27-267 18l-119-9-52 54c-45 46-74 65-74 48 0-2 25-52 55-110 63-121 69-168 35-277-28-90-26-93 26-58 25 18 48 29 51 26 4-3 7-50 8-104 1-97 1-97 59-213 31-63 59-131 62-150 6-34 5-34-61-67-37-18-65-35-62-39 3-3 49 3 101 12 58 11 113 15 139 11 73-11 175-68 296-163l114-90 62 4c42 4 92-1 156-15 52-12 105-23 119-24 24-4 24-4-10-26-25-16-51-22-90-22-68 0-134-29-213-94l-58-47-49 16c-62 21-210 45-274 45-48 0-49 0-31-20 20-22 75-42 185-66 41-9 92-25 112-35 21-11 53-19 73-19 19 0 79-10 133-21 157-35 187-32 266 21 81 55 70 59-77 35-99-17-200-16-219 3-13 13 55 69 116 98 63 29 102 30 141 3 57-38 124-69 152-69l28 1-35 30c-19 17-57 46-84 64l-48 33 43 23c24 12 85 50 135 84 96 66 159 88 285 101 82 8 136-8 238-71 40-25 77-45 83-45 5 0-1 19-14 42-44 79-138 125-276 137l-76 6-54 80c-57 86-121 157-163 184l-27 16 62 71c33 38 77 90 97 114l35 43 80-55c100-70 174-107 294-147 99-32 179-79 249-144 81-75 371-484 371-523 0-28-150-129-315-211-93-47-201-104-240-128-90-54-183-91-298-118-81-19-120-21-332-21-132 0-267 5-299 11l-60 11-50-48c-41-39-75-58-179-99-193-77-285-101-412-108-98-6-117-10-190-44-167-77-396-140-560-156l-62-6 24 73c49 147 39 322-26 450l-31 60h43c66 0 165-19 242-45l70-25 50 49c34 34 62 52 86 56 25 5 40 14 48 31 15 35 69 64 117 64 39 0 45-4 83-55 22-30 41-56 41-59 0-3-13-27-30-53-29-46-42-123-20-123 18 0 233 338 223 352-12 20-122-82-123-114 0-36-19-26-49 27-41 72-73 89-156 80l-62-7-5 89c-3 66-9 98-24 120-20 33-125 119-156 129-23 7-68-3-68-15 0-5 31-31 68-58 90-66 107-101 105-210l-2-83h39c22 0 40-4 40-8 0-4-21-18-46-30-25-12-67-43-94-68l-49-46-108 33c-72 22-129 32-175 33-57 1-68 4-64 16 3 8 21 64 39 125 19 60 39 111 45 113 13 4 98-94 124-143 12-22 26-60 33-85 14-57 46-67 69-21 21 40 20 74-4 120-30 60-100 110-203 144-14 5-2 29 78 152 52 80 95 151 95 158 0 7-14 28-30 47l-29 35-1-38c0-22-8-51-19-66-28-38-120-85-221-111-108-28-326-38-438-20-152 24-295 91-400 187l-52 48 6 87 7 87 48 30c48 30 101 92 124 146 13 30 17 31 127 49 154 25 284 59 352 91 103 49 145 91 264 270 62 91 112 172 112 178 0 7-51-41-113-106-255-266-346-312-782-388-374-65-521-117-734-261-177-119-220-156-275-232-51-72-161-176-186-176-34 0-137 32-177 56-58 34-113 147-148 303-14 63-37 139-50 169-46 100-179 250-310 348-101 76-108 89-109 199-2 89-17 140-58 197-10 15-9 30 5 85 10 37 21 71 26 76 5 5 64 1 131-8 122-15 124-16 189-64 36-27 92-65 124-86 49-33 65-51 105-123 36-66 62-97 111-139 111-91 225-119 456-110 130 4 147 7 240 42 108 40 230 102 448 227 212 122 386 201 542 248 98 29 165 56 225 91 120 69 190 93 275 93 59 1 78-4 122-28 72-40 130-99 142-144 30-113 21-354-19-550-37-179-139-511-184-601-56-111-90-221-68-221 14 0 100 116 129 175 31 60 164 492 204 660 25 103 29 223 15 447l-9 147-84 72c-60 52-80 75-71 80 24 15 154 9 231-10m1229-278c103-48 250-148 287-193 52-65 64-105 58-188-7-86-41-167-110-257-68-89-407-430-446-450-19-9-72-30-119-45-47-16-92-36-101-46-15-15-10-16 65-12 130 7 232 63 399 219l66 62 40-39c36-34 139-187 139-205 0-3-21-14-47-24-66-24-162-81-199-116l-30-29-45 19c-79 35-160 51-260 51h-97l-70 64c-85 75-178 126-291 159l-83 24-28 71c-15 39-46 99-69 132-24 34-41 63-39 65 2 1 28 15 58 30 29 15 72 39 93 53l39 26 19-25c12-15 17-33 14-49-15-71-16-135-5-194 7-37 16-68 20-71 4-3 11 21 15 53 3 31 18 114 32 184l25 128-21 33c-24 39-19 50 16 36 13-5 27-9 31-9 4 0 6 35 4 78-2 42 3 106 10 142l14 65 48 3c45 3 52 0 90-36 43-42 84-67 93-58 9 9-56 103-94 136l-34 31 35 47c47 64 113 125 161 151 35 18 54 21 145 18 94-2 112-6 172-34m-3755-204c134-112 200-175 191-184-12-12-187 87-235 133-77 73-160 211-104 171 11-8 77-62 148-120m2988-82c88-12 90-13 87-37-7-50-62-152-114-206-48-51-169-154-180-154-3 0-22 41-43 91-35 86-37 97-39 205l-1 114 100-1c55 0 141-6 190-12m-1705-475c0-4-20-31-45-59-33-38-56-54-81-59-29-5-42-18-92-93-32-48-67-108-78-134-10-26-23-47-27-47-16 0-217 233-217 252 0 19 203 83 385 123 119 25 155 29 155 17m-535-249c42-85 127-179 184-203 18-7 30-18 27-24-3-6-34-83-70-171-97-240-99-268-10-142 93 130 146 256 168 394l11 76 38-61c65-105 187-194 345-252 113-41 232-60 376-60 134 0 219 16 296 55 55 28 62 20 26-28-35-47-51-81-96-213-22-65-52-138-66-161-35-60-146-170-226-223-37-25-68-48-68-52-1-24 133 27 191 73 46 37 49 32 11-24-45-66-103-169-98-174 8-9 79 62 115 116 21 31 52 84 70 119 17 34 35 62 40 62 15 0 36-161 36-275 0-115-15-179-58-258-24-43-32-45-63-16l-22 20 24 43c34 61 48 141 39 230-4 42-10 76-15 76-5 0-11-19-15-42-6-36-68-237-90-289-5-13 2-19 29-25l36-9-39-46c-22-25-65-63-97-85l-56-39-128-3c-143-4-543 30-635 53-67 18-101 35-175 86-65 45-112 104-170 212-23 42-46 77-50 77-5 0-6-25-3-55 3-30 2-55-2-55-4 0-19 10-34 23-15 13-92 56-171 97-184 96-226 134-309 281-35 63-94 166-130 229-36 63-67 118-69 122-2 4 11 14 28 23 17 9 61 41 98 73 60 51 72 57 129 64 103 12 132 33 202 147 34 55 80 116 104 136 34 30 274 170 298 174 3 1 23-34 44-76"/><path d="m3340 3201c19-66 75-123 137-140 21-6 61-27 88-47 59-42 145-88 152-80 9 8-36 73-69 101-17 15-76 49-130 76-54 27-116 65-137 84-21 19-41 35-44 35-3 0-2-13 3-29"/><path d="m3629 2763c24-59 32-70 64-82 48-18 55-10 26 31-91 133-133 156-90 51"/><path d="m4404 2345l-70-33-69 29c-38 16-72 28-77 27-5-2 1-19 14-37 56-83 187-107 248-45 28 28 52 95 34 93-5 0-41-16-80-34"/><path d="m6402 2038c2-25 8-34 26-36 13-2 24 3 28 12 8 22-14 56-37 56-17 0-20-5-17-32"/><path d="m6540 1964c0-4 35-43 78-88 43-45 96-106 119-137 35-47 48-57 77-61 20-2 36 0 36 5 0 17-130 176-173 210-37 31-117 77-132 77-3 0-5-3-5-6"/><path d="m8425 1800c-220-24-452-130-660-303-98-81-137-118-131-124 12-12 107 38 243 130 226 151 410 231 556 244 53 5 71 10 82 27 8 11 15 24 15 28 0 9-3 9-105-2"/><path d="m7359 1350c-26-22-60-61-77-87-33-52-50-103-34-103 15 0 89 84 132 152 59 91 53 102-21 38"/><path d="m6734 1151c-40-24-129-124-115-129 24-8 113 64 138 111 19 37 14 41-23 18"/><path d="m626 2324c-3-9-6-31-6-49 0-28 8-40 53-75 96-78 188-102 238-61l23 18-30 16c-17 9-78 28-135 42-57 15-107 32-111 38-4 7-8 26-8 44 0 35-15 52-24 27"/><path d="m1715 1834l-69-45-56 15c-31 9-93 16-138 16-44 0-92 4-106 10-41 15-39-5 3-43 44-40 91-53 152-43 31 5 50 1 90-19l51-26 36 27c42 30 75 65 103 109 37 59 25 59-66-1"/></g></svg>